Coordinates
version=1
nRows=26
nColumns=24
inDegrees=yes

Units are S.I. units (second, meters, Newtons, ...)
Angles are in degrees.

endheader
time	pelvis_tilt	pelvis_list	pelvis_rotation	pelvis_tx	pelvis_ty	pelvis_tz	hip_flexion_r	hip_adduction_r	hip_rotation_r	knee_angle_r	ankle_angle_r	subtalar_angle_r	mtp_angle_r	hip_flexion_l	hip_adduction_l	hip_rotation_l	knee_angle_l	ankle_angle_l	subtalar_angle_l	mtp_angle_l	lumbar_extension	lumbar_bending	lumbar_rotation
      0.52900000	     -0.13566247	      5.76373284	      3.68578346	     -0.83362235	      0.97356050	      0.31999665	     26.15574644	     -4.44103397	     -4.89686512	     -5.50337257	      9.69082634	     -5.85533923	      0.55686421	    -15.10426798	      9.30946575	      7.28333944	    -11.24133264	     11.82675294	     -5.38267966	      0.28955693	     -0.28620294	     -3.75625086	     -0.74431128
      0.53316667	     -0.21071003	      5.76418690	      3.68997963	     -0.82761545	      0.97304506	      0.32032110	     26.25645400	     -4.37473238	     -4.94287827	     -5.83320690	      9.66927362	     -5.73042183	      0.79855293	    -15.08553597	      9.26239230	      7.06559432	    -11.80987926	     11.75741303	     -5.01084227	      0.31990929	     -0.14704047	     -3.76906576	     -0.76336764
      0.53733333	     -0.25313571	      5.74966234	      3.68586304	     -0.82156578	      0.97261183	      0.32065759	     26.30520485	     -4.28648678	     -4.92971141	     -6.18882386	      9.57937731	     -5.73819470	      1.07908179	    -15.10222578	      9.19983809	      6.86504481	    -12.36997208	     11.62512358	     -4.69539546	      0.40049182	     -0.04297175	     -3.76019589	     -0.82578785
      0.54150000	     -0.24403456	      5.72341814	      3.66858320	     -0.81542024	      0.97229577	      0.32098416	     26.28858734	     -4.18319983	     -4.90580802	     -6.58796077	      9.45026701	     -5.79035908	      1.12448833	    -15.21636917	      9.13479503	      6.78227032	    -12.84742553	     11.36111620	     -4.65859952	      0.41743540	     -0.00186448	     -3.73719159	     -0.84118062
      0.54566667	     -0.27753168	      5.66906255	      3.66000973	     -0.80925528	      0.97193363	      0.32137991	     26.29611568	     -4.04470012	     -4.80571822	     -6.98999522	      9.29348052	     -6.00027337	      1.86702590	    -15.18234518	      9.01127658	      6.42359386	    -13.51509046	     11.23762775	     -4.03665977	      0.87279134	      0.11326540	     -3.67032129	     -0.89525749
      0.54983333	     -0.39633974	      5.66607922	      3.63691456	     -0.80309476	      0.97147939	      0.32173047	     26.42448259	     -3.96297195	     -4.66192699	     -7.47675440	      9.03327142	     -6.07323572	      2.12170792	    -15.08271373	      8.98491254	      6.27402614	    -14.13918090	     10.97605005	     -3.95550204	      1.06619054	      0.32515093	     -3.68370490	     -0.92741070
      0.55400000	     -0.43389482	      5.62033988	      3.59095613	     -0.79683400	      0.97118380	      0.32213623	     26.42806098	     -3.81847850	     -4.45250790	     -7.92958234	      8.68356122	     -6.52983532	      5.55600148	    -15.07708414	      8.89793446	      6.04747579	    -14.72398081	     10.57713024	     -3.78356326	      4.21695497	      0.44745654	     -3.63299621	     -0.93285437
      0.55816667	     -0.46453847	      5.54921249	      3.55447559	     -0.79051506	      0.97091027	      0.32253160	     26.43651862	     -3.66329274	     -4.36602866	     -8.44705237	      8.39886262	     -6.54932197	      5.60717151	    -15.03528932	      8.77473322	      5.75487305	    -15.40345389	     10.27924524	     -3.45455400	      4.29463538	      0.57633156	     -3.54588253	     -0.97383458
      0.56233333	     -0.52285611	      5.49174019	      3.51387300	     -0.78419332	      0.97064333	      0.32293840	     26.44944869	     -3.51300210	     -4.16811660	     -8.93169324	      8.03582841	     -6.75012101	      5.66216839	    -14.94906150	      8.67269319	      5.48973929	    -16.10297478	      9.88996142	     -3.20977160	      4.41116666	      0.73694198	     -3.48400082	     -0.98987377
      0.56650000	     -0.57846685	      5.40955842	      3.46748891	     -0.77783076	      0.97041452	      0.32338070	     26.44577053	     -3.33054528	     -3.93885827	     -9.41484482	      7.64694316	     -7.06397735	      5.73868144	    -14.83536163	      8.53591760	      5.16704152	    -16.84610794	      9.47908021	     -2.89333124	      4.61413385	      0.89690354	     -3.39556893	     -0.99828908
      0.57066667	     -0.64366786	      5.32239846	      3.41612277	     -0.77144084	      0.97021263	      0.32383154	     26.44544060	     -3.14201343	     -3.69601886	     -9.90160855	      7.23129096	     -7.41030252	      5.82356429	    -14.68940692	      8.39277456	      4.83670082	    -17.62058703	      9.01303174	     -2.59285856	      4.87647436	      1.07462231	     -3.29784256	     -0.99979695
      0.57483333	     -0.67709085	      5.20309152	      3.34550899	     -0.76499468	      0.97008577	      0.32430709	     26.40089344	     -2.91253877	     -3.44263334	    -10.38542075	      6.81969489	     -7.92014100	      7.12207407	    -14.57784236	      8.21248597	      4.48742633	    -18.37268960	      8.40052692	     -2.39153223	      9.28989901	      1.22154650	     -3.14387832	     -0.98988599
      0.57900000	     -0.73389663	      5.11226785	      3.30091676	     -0.75856611	      0.96997368	      0.32474405	     26.39133899	     -2.73737293	     -3.28042388	    -10.89999920	      6.36531889	     -8.08938044	      7.12864737	    -14.40171548	      8.05734117	      4.18093316	    -19.19966659	      7.79840243	     -2.11278653	      9.33997710	      1.38098663	     -3.05388722	     -0.99464017
      0.58316667	     -0.81741849	      5.00066496	      3.25308697	     -0.75214412	      0.96985146	      0.32522394	     26.38320315	     -2.52925066	     -3.03143227	    -11.36527870	      5.90366455	     -8.48682913	      7.14628846	    -14.13270001	      7.86460865	      3.77711462	    -20.13508052	      7.22974720	     -1.69186239	      9.48785358	      1.59607034	     -2.92216820	     -0.98499261
      0.58733333	     -0.86337436	      4.84512130	      3.20339697	     -0.74569420	      0.96983989	      0.32573561	     26.31816208	     -2.26990940	     -2.76834984	    -11.82314118	      5.51301600	     -9.15700364	      7.19020831	    -13.88370887	      7.61111639	      3.36661709	    -21.08498748	      6.57603778	     -1.25550443	      9.93530364	      1.75659849	     -2.73375592	     -0.96343458
      0.59150000	     -0.94296556	      4.72544057	      3.14490889	     -0.73928351	      0.96978528	      0.32621141	     26.32706272	     -2.06671599	     -2.59968194	    -12.34424957	      5.04754409	     -9.45268599	      7.21669607	    -13.56513887	      7.40388754	      2.98392520	    -22.09065543	      5.90411444	     -0.90621405	     10.32143517	      1.95214847	     -2.59085546	     -0.95514755
      0.59566667	     -0.99962444	      4.56097381	      3.12612971	     -0.73285289	      0.96986205	      0.32671057	     26.24298841	     -1.81678677	     -2.36630712	    -12.75543070	      4.70576725	    -10.05691246	      7.25862363	    -13.22503114	      7.11641388	      2.60514594	    -23.15419418	      5.08999843	     -0.44956129	     11.18647567	      2.12663896	     -2.40663142	     -0.94018136
      0.59983333	     -1.08064056	      4.44397678	      3.07196421	     -0.72647018	      0.96990545	      0.32718709	     26.24116951	     -1.62674913	     -2.21538812	    -13.26389045	      4.28690175	    -10.33109610	      7.39125647	    -12.83913803	      6.89955320	      2.26040371	    -24.22401637	      4.13454278	     -0.28237819	     16.51851729	      2.32026589	     -2.27022508	     -0.91945590
      0.60400000	     -1.12775591	      4.29352069	      3.04991968	     -0.72009019	      0.97003096	      0.32764684	     26.18260252	     -1.42382256	     -2.15842736	    -13.74136296	      3.94720139	    -10.44619468	      7.38422782	    -12.43888835	      6.61686585	      1.90608697	    -25.39105509	      3.25082917	      0.15200891	     16.57537862	      2.47494824	     -2.10116443	     -0.93663257
      0.60816667	     -1.19993179	      4.12674758	      3.02987482	     -0.71378170	      0.97014918	      0.32812692	     26.16048498	     -1.20176207	     -2.07451075	    -14.24687671	      3.65753219	    -10.85001194	      7.36089713	    -11.95175407	      6.30699783	      1.54708654	    -26.64051610	      2.38873172	      0.61898686	     16.75262958	      2.64464232	     -1.90188057	     -0.94230771
      0.61233333	     -1.26381218	      3.95819922	      3.01875203	     -0.70749929	      0.97031947	      0.32860543	     26.11225610	     -0.98483203	     -2.00383894	    -14.71685351	      3.39182365	    -11.15506065	      7.32666468	    -11.43892426	      5.98480627	      1.21806486	    -27.92910218	      1.40517475	      1.04381088	     16.98977416	      2.80599502	     -1.71416161	     -0.94306432
      0.61650000	     -1.29831692	      3.76319637	      3.03894903	     -0.70126073	      0.97058584	      0.32907666	     25.99670996	     -0.74728798	     -1.93538856	    -15.12522358	      3.20215618	    -11.60859089	      7.23550437	    -10.91722380	      5.61658581	      0.94236054	    -29.26579195	      0.37742252	      1.49847392	     17.55316116	      2.92805755	     -1.49501240	     -0.94473627
      0.62066667	     -1.35282776	      3.60712739	      3.01957619	     -0.69507318	      0.97081789	      0.32954157	     25.94454405	     -0.55876920	     -1.93936027	    -15.59945980	      3.00626909	    -11.62029749	      7.19933248	    -10.34161214	      5.30337568	      0.66443343	    -30.63283505	     -0.74172498	      1.82422417	     17.75170267	      3.07144158	     -1.32172533	     -0.94575030
      0.62483333	     -1.40156967	      3.42221816	      3.03213856	     -0.68895789	      0.97107445	      0.32999787	     25.87593068	     -0.35082011	     -1.97258882	    -16.06129379	      2.89219783	    -11.76791946	      7.15043667	     -9.72251789	      4.94171177	      0.42741062	    -32.06697901	     -1.85871691	      2.21803308	     17.99083118	      3.19615015	     -1.11413934	     -0.95473457
      0.62900000	     -1.41812166	      3.20111762	      3.03823594	     -0.68289689	      0.97140085	      0.33050105	     25.75572511	     -0.09388638	     -1.98406772	    -16.48882242	      2.80016442	    -12.06915989	      6.04465153	     -9.09994764	      4.52506390	      0.17781989	    -33.52488665	     -3.05239945	      2.54137600	     22.76031365	      3.26696020	     -0.85757719	     -0.88906611
      0.63316667	     -1.44498930	      3.02312640	      3.05843871	     -0.67689931	      0.97173895	      0.33093329	     25.65065018	      0.09437442	     -2.07012745	    -16.91930901	      2.75607193	    -12.07430465	      6.03593452	     -8.44604718	      4.17145289	      0.02792850	    -34.99866671	     -4.27148215	      2.82905866	     22.76561589	      3.35229249	     -0.66589400	     -0.93879820
